<svg width="38" height="30" viewBox="0 0 38 30" fill="none" xmlns="http://www.w3.org/2000/svg">
<path d="M30.8886 23.0195C29.0431 23.0195 27.5419 24.5228 27.5419 26.3712C27.5419 28.2204 29.0431 29.7247 30.8886 29.7247C32.7349 29.7247 34.2357 28.2204 34.2357 26.3712C34.2357 24.5228 32.7349 23.0195 30.8886 23.0195Z" fill="#00AC4E"/>
<path d="M8.32164 23.0195C6.47527 23.0195 4.974 24.5228 4.974 26.3712C4.974 28.2204 6.47527 29.7247 8.32164 29.7247C10.167 29.7247 11.6683 28.2204 11.6683 26.3712C11.6684 24.5228 10.1671 23.0195 8.32164 23.0195Z" fill="#00AC4E"/>
<path d="M32.777 8.93808C32.6004 8.40596 32.1024 8.04639 31.5414 8.04639H29.9594V13.6111H34.325L32.777 8.93808Z" fill="#00AC4E"/>
<path d="M36.9705 15.6943H29.9594V21.0178C30.2614 20.966 30.572 20.937 30.8885 20.937C33.686 20.937 35.9958 23.0662 36.2865 25.7903H36.5316C37.2499 25.7903 37.8326 25.2075 37.8326 24.4884V16.9182C37.8326 16.3533 37.4726 15.8749 36.9705 15.6943Z" fill="#00AC4E"/>
<path d="M27.8271 1.89129C27.8271 1.17214 27.2443 0.589355 26.5259 0.589355H1.42384C0.705586 0.589355 0.122803 1.17201 0.122803 1.89129V24.4882C0.122803 25.2073 0.705586 25.7901 1.42384 25.7901H2.92207C3.21295 23.066 5.52262 20.9367 8.32062 20.9367C11.1176 20.9367 13.4269 23.066 13.7178 25.7901H23.9927H25.4909C25.6661 24.1499 26.5728 22.7272 27.8774 21.8531L27.8271 1.89129Z" fill="#00AC4E"/>
</svg>
