<svg width="38" height="44" viewBox="0 0 38 44" fill="none" xmlns="http://www.w3.org/2000/svg">
<path d="M11.0255 21.8709C17.0457 21.8709 21.9286 16.988 21.9286 10.9678C21.9286 4.94762 17.0457 0.0556641 11.0255 0.0556641C5.00536 0.0556641 0.122437 4.93859 0.122437 10.9588C0.122437 16.9789 5.00536 21.8709 11.0255 21.8709ZM7.21667 15.2731C7.31595 14.912 7.41523 14.56 7.52354 14.199C7.6499 13.7838 7.76724 13.7387 8.14632 13.9373C8.79617 14.2712 9.48213 14.4607 10.2042 14.551C10.6645 14.6052 11.1248 14.56 11.549 14.3705C12.3523 14.0185 12.4787 13.0888 11.8017 12.5292C11.5671 12.3397 11.3053 12.1953 11.0346 12.0779C10.3305 11.7711 9.59946 11.5364 8.93156 11.1393C7.85749 10.4984 7.17154 9.6049 7.25277 8.29616C7.34303 6.81594 8.18242 5.88629 9.53628 5.3989C10.0959 5.19131 10.0959 5.20034 10.1049 4.61366C10.1049 4.4151 10.1049 4.21653 10.1049 4.01796C10.1139 3.5757 10.1952 3.5035 10.6284 3.48545C10.7638 3.48545 10.8992 3.48545 11.0346 3.48545C11.9732 3.48545 11.9732 3.48545 11.9732 4.42412C11.9732 5.083 11.9732 5.09203 12.6321 5.19131C13.1376 5.27254 13.6159 5.41695 14.0853 5.62455C14.347 5.74188 14.4373 5.92239 14.3651 6.19317C14.2477 6.59932 14.1394 7.00548 14.004 7.40262C13.8777 7.7817 13.7603 7.83585 13.3993 7.66436C12.6682 7.31236 11.901 7.15892 11.0887 7.20405C10.8721 7.21307 10.6735 7.24015 10.475 7.33041C9.77998 7.63728 9.66264 8.40447 10.2583 8.88284C10.5562 9.12653 10.8992 9.29802 11.2602 9.44243C11.8739 9.69515 12.4967 9.94787 13.0924 10.2728C14.9608 11.3108 15.4662 13.6575 14.1484 15.255C13.6701 15.8327 13.0563 16.2208 12.3252 16.4193C12.0093 16.5096 11.8649 16.6721 11.883 16.997C11.901 17.3219 11.883 17.6378 11.883 17.9627C11.883 18.2516 11.7386 18.405 11.4497 18.414C11.1068 18.423 10.7548 18.423 10.4118 18.414C10.1049 18.405 9.96049 18.2335 9.96049 17.9357C9.96049 17.701 9.96049 17.4663 9.95147 17.2316C9.94244 16.7172 9.93341 16.6901 9.42797 16.6089C8.78715 16.5096 8.16437 16.3652 7.5777 16.0764C7.13544 15.8688 7.09031 15.7514 7.21667 15.2731Z" fill="#00AC4E"/>
<path d="M35.486 22.7823H34.2134C33.374 20.2099 31.7313 17.9264 29.538 16.1574C29.538 16.0761 29.52 15.9859 29.5019 15.9047C29.0416 14.2891 29.6102 12.8179 30.2691 11.7618C30.7294 11.0217 30.1337 10.074 29.2673 10.1823C27.3267 10.426 25.9909 11.1391 25.0703 11.9424C24.4385 12.4929 23.9872 13.233 23.7886 14.0544C22.3987 19.8128 17.2089 24.1 11.0262 24.1C8.02067 24.1 5.25879 23.0891 3.04748 21.3923C2.2803 23.053 1.86511 24.8672 1.86511 26.7716C1.86511 27.8006 1.99147 28.8024 2.22614 29.7682C2.22614 29.7682 2.22614 29.7862 2.23517 29.8133C2.47886 30.8152 2.84892 31.7809 3.31826 32.6925C3.94103 34.0374 4.84361 35.6078 6.08916 36.8805C7.88528 38.7308 8.19216 41.0233 8.23728 42.0161V42.4403C8.23728 42.4584 8.23728 42.4764 8.23728 42.4945C8.23728 42.5035 8.23728 42.5035 8.23728 42.5035C8.27339 42.9909 8.67955 43.379 9.17596 43.379H14.8802C15.3947 43.379 15.8189 42.9638 15.8189 42.4403V41.0323C16.6493 41.1406 17.4977 41.2038 18.3551 41.2038C19.0321 41.2038 19.6909 41.1677 20.3498 41.0955V42.4403C20.3498 42.9548 20.765 43.379 21.2885 43.379H27.0108C27.5253 43.379 27.9495 42.9638 27.9495 42.4403V41.0323C27.9585 40.563 28.121 38.6947 29.89 37.0971C29.9532 37.0429 30.0164 36.9888 30.0796 36.9346C30.0976 36.9166 30.1157 36.9076 30.1337 36.8895C32.1013 35.1385 33.5545 32.9543 34.3036 30.5173H35.504C36.4608 30.5173 37.237 29.7411 37.237 28.7844V24.5152C37.2189 23.5585 36.4427 22.7823 35.486 22.7823ZM28.3466 23.0891C27.5614 23.0891 26.9296 22.4573 26.9296 21.6721C26.9296 20.8869 27.5614 20.2551 28.3466 20.2551C29.1319 20.2551 29.7637 20.8869 29.7637 21.6721C29.7637 22.4573 29.1319 23.0891 28.3466 23.0891Z" fill="#00AC4E"/>
</svg>
