<svg width="42" height="38" viewBox="0 0 42 38" fill="none" xmlns="http://www.w3.org/2000/svg">
<path d="M38.6281 0.85498H3.24157C1.74062 0.85498 0.519531 2.07607 0.519531 3.57702V28.0754C0.519531 29.5763 1.74062 30.7974 3.24157 30.7974H17.8725V33.4344C17.8725 33.8102 18.1772 34.1149 18.553 34.1149C18.9288 34.1149 19.2335 33.8102 19.2335 33.4344V30.9675H22.6361V33.4344C22.6361 33.8102 22.9408 34.1149 23.3166 34.1149C23.6924 34.1149 23.9971 33.8102 23.9971 33.4344V30.7974H38.6281C40.129 30.7974 41.3501 29.5763 41.3501 28.0754V3.57702C41.3501 2.07615 40.129 0.85498 38.6281 0.85498ZM39.9891 28.0754C39.9891 28.8258 39.3785 29.4364 38.6281 29.4364H3.24157C2.49114 29.4364 1.88055 28.8258 1.88055 28.0754V3.57702C1.88055 2.82659 2.49114 2.216 3.24157 2.216H38.6281C39.3785 2.216 39.9891 2.82659 39.9891 3.57702V28.0754ZM31.1118 37.2943C31.0003 37.6525 30.6195 37.8537 30.2598 37.7419C24.5401 35.9624 17.2928 35.974 11.6099 37.7419C11.251 37.8534 10.8696 37.6532 10.7579 37.2943C10.6462 36.9353 10.8466 36.554 11.2055 36.4423C17.1533 34.5919 24.6829 34.5815 30.6641 36.4423C31.023 36.554 31.2234 36.9354 31.1118 37.2943ZM28.0297 13.5518C27.9099 12.4515 26.985 11.6219 25.8782 11.6219H25.0347V10.0461C25.0347 7.76657 23.1802 5.91202 20.9006 5.91202C18.6211 5.91202 16.7667 7.76649 16.7667 10.046V11.6218H15.9232C14.8164 11.6218 13.8915 12.4515 13.7717 13.5518L12.7134 23.2728C12.5741 24.5527 13.5783 25.6714 14.8649 25.6714H26.9366C28.224 25.6714 29.2273 24.5519 29.0881 23.2728L28.0297 13.5518ZM26.9366 24.3104H14.8649C14.3858 24.3104 14.0145 23.8958 14.0664 23.4202L15.1247 13.6992C15.1691 13.2908 15.5125 12.9829 15.9232 12.9829H16.7667V14.3284C16.7667 14.7042 17.0714 15.0089 17.4472 15.0089C17.823 15.0089 18.1277 14.7042 18.1277 14.3284V10.0459C18.1277 8.51684 19.3717 7.27287 20.9007 7.27287C22.4298 7.27287 23.6738 8.51684 23.6738 10.0459V11.6217H20.1402C19.7643 11.6217 19.4596 11.9264 19.4596 12.3023C19.4596 12.6781 19.7643 12.9828 20.1402 12.9828H23.6738V14.3283C23.6738 14.7041 23.9785 15.0088 24.3543 15.0088C24.7301 15.0088 25.0348 14.7041 25.0348 14.3283V12.9828H25.8783C26.289 12.9828 26.6323 13.2907 26.6768 13.6991L27.7351 23.4201C27.787 23.8963 27.4151 24.3104 26.9366 24.3104Z" fill="#00AC4E"/>
</svg>
