<svg width="76" height="75" viewBox="0 0 76 75" fill="none" xmlns="http://www.w3.org/2000/svg">
<g clip-path="url(#clip0)">
<path d="M68.045 17.7673H66.3778V16.1001C66.3778 12.1753 63.185 8.98242 59.2602 8.98242H8.16944C4.24468 8.98242 1.05176 12.1755 1.05176 16.1001V49.5406C1.05176 53.4652 4.2448 56.6582 8.16944 56.6582H9.8366V58.3254C9.8366 62.2501 13.0296 65.4431 16.9543 65.4431H68.0448C71.9696 65.4431 75.1626 62.2501 75.1626 58.3254V24.8849C75.1625 20.9602 71.9697 17.7673 68.045 17.7673ZM69.9179 58.3253C69.9179 59.3597 69.0793 60.1983 68.0449 60.1983H16.9543C15.9198 60.1983 15.0812 59.3597 15.0812 58.3253V56.6581V54.0358V51.4135V24.8849C15.0812 23.8503 15.9198 23.0119 16.9543 23.0119H61.1332H63.7555H66.3778H68.045C69.0794 23.0119 69.918 23.8505 69.918 24.8849V58.3253H69.9179ZM6.29637 49.5404V16.1001C6.29637 15.0656 7.13497 14.227 8.16944 14.227H59.2602C60.2946 14.227 61.1332 15.0656 61.1332 16.1001V17.7673H16.9543C13.0296 17.7673 9.8366 20.9603 9.8366 24.8849V51.4135H8.16957C7.13497 51.4135 6.29637 50.5749 6.29637 49.5404Z" fill="#00AC4E"/>
<path d="M68.0455 65.5048H16.9548C12.9964 65.5048 9.77593 62.2844 9.77593 58.3259V56.72H8.17011C4.21168 56.72 0.991211 53.4995 0.991211 49.5411V16.1008C0.991211 12.1423 4.21168 8.92188 8.17011 8.92188H59.2609C63.2192 8.92188 66.4396 12.1423 66.4396 16.1008V17.7067H68.0457C72.004 17.7067 75.2245 20.9272 75.2245 24.8856V58.3259C75.2244 62.2844 72.004 65.5048 68.0455 65.5048ZM8.17011 9.04418C4.27913 9.04418 1.11363 12.2098 1.11363 16.1008V49.5412C1.11363 53.4321 4.27913 56.5977 8.17011 56.5977H9.89848V58.3261C9.89848 62.2169 13.064 65.3825 16.955 65.3825H68.0455C71.9364 65.3825 75.1021 62.217 75.1021 58.3261V24.8856C75.1021 20.9946 71.9367 17.8291 68.0457 17.8291H66.3172V16.1008C66.3172 12.2098 63.1518 9.0443 59.2609 9.0443H8.17011V9.04418ZM68.0457 60.2602H16.955C15.8884 60.2602 15.0207 59.3925 15.0207 58.3259V24.8856C15.0207 23.819 15.8884 22.9513 16.955 22.9513H68.0457C69.1123 22.9513 69.9799 23.819 69.9799 24.8856V58.3259C69.9798 59.3925 69.1121 60.2602 68.0457 60.2602ZM16.955 23.0737C15.9559 23.0737 15.1431 23.8866 15.1431 24.8856V58.3259C15.1431 59.325 15.9559 60.1378 16.955 60.1378H68.0457C69.0447 60.1378 69.8575 59.325 69.8575 58.3259V24.8856C69.8575 23.8865 69.0447 23.0737 68.0457 23.0737H16.955ZM9.89848 51.4754H8.17023C7.10368 51.4754 6.23582 50.6077 6.23582 49.5411V16.1008C6.23582 15.0342 7.10356 14.1665 8.17011 14.1665H59.2609C60.3274 14.1665 61.195 15.0342 61.195 16.1008V17.8291H16.955C13.064 17.8291 9.89848 20.9946 9.89848 24.8856V51.4754ZM8.17011 14.2888C7.17101 14.2888 6.35824 15.1015 6.35824 16.1006V49.5411C6.35824 50.5401 7.17113 51.353 8.17023 51.353H9.77618V24.8856C9.77618 20.9272 12.9966 17.7067 16.9551 17.7067H61.0727V16.1008C61.0727 15.1017 60.26 14.2889 59.261 14.2889H8.17011V14.2888Z" fill="#00AC4E"/>
<path d="M62.4517 52.4317L60.726 50.7059L52.3704 42.3502C51.6389 41.6186 50.453 41.6186 49.7215 42.3502L44.9736 47.0981L36.1039 38.2284C35.3724 37.4968 34.1864 37.4968 33.455 38.2284L20.2701 51.4132L19.2516 52.4317C18.8145 52.8687 18.6389 53.4678 18.7239 54.0355C18.7814 54.418 18.957 54.7862 19.2516 55.0806L20.3113 56.1402C20.5905 56.4195 20.9361 56.5917 21.2973 56.6578C21.5209 56.6987 21.7505 56.6987 21.974 56.6578C22.3353 56.5918 22.6809 56.4196 22.9602 56.1402L25.0649 54.0355L27.6872 51.4132L33.4549 45.6455C34.1864 44.9139 35.3724 44.9139 36.1038 45.6455L41.8714 51.4132L44.4937 54.0355L46.5985 56.1402C46.8777 56.4195 47.2233 56.5917 47.5846 56.6578C47.8081 56.6987 48.0377 56.6987 48.2612 56.6578C48.6225 56.5918 48.968 56.4196 49.2474 56.1402L50.307 55.0806C50.6014 54.7861 50.7772 54.418 50.8346 54.0355C50.9197 53.4678 50.7442 52.8688 50.307 52.4317L49.2885 51.4132L48.6821 50.8067L51.0457 48.4429L54.0162 51.4132L56.6385 54.0355L58.7431 56.1402C59.0071 56.404 59.3304 56.5722 59.6699 56.6457C60.1149 56.742 60.5878 56.675 60.9934 56.4442C61.1361 56.3629 61.2705 56.262 61.3922 56.1403L62.4517 55.0808C63.1386 54.394 63.1805 53.3065 62.5776 52.5707C62.5382 52.5229 62.4964 52.4765 62.4517 52.4317Z" fill="#00AC4E"/>
<path d="M47.9234 56.7507C47.8065 56.7507 47.689 56.7399 47.574 56.719C47.1867 56.6482 46.8346 56.4633 46.5557 56.1845L36.0609 45.6896C35.7187 45.3473 35.2636 45.1589 34.7797 45.1589C34.2958 45.1589 33.8407 45.3473 33.4985 45.6896L23.0038 56.1845C22.7251 56.4633 22.3728 56.6482 21.9855 56.719C21.7557 56.7608 21.5166 56.7608 21.2867 56.719C20.8994 56.6482 20.5473 56.4633 20.2684 56.1845L19.2087 55.1249C18.914 54.8303 18.7256 54.4571 18.6638 54.0456C18.5731 53.4406 18.7768 52.8214 19.2087 52.3895L33.4121 38.1862C33.7774 37.8209 34.2632 37.6196 34.7798 37.6196C35.2965 37.6196 35.7822 37.8209 36.1475 38.1862L44.974 47.0127L49.6787 42.3081C50.044 41.9428 50.5297 41.7415 51.0464 41.7415C51.5632 41.7415 52.0488 41.9428 52.4142 42.3081L62.4955 52.3895C62.54 52.434 62.5839 52.4823 62.6255 52.5327C63.2578 53.3045 63.2018 54.4188 62.4955 55.125L61.436 56.1846C61.3138 56.3068 61.1753 56.4123 61.0242 56.4984C60.7344 56.6634 60.4041 56.7505 60.0688 56.7505C60.0687 56.7505 60.0687 56.7505 60.0687 56.7505C59.9306 56.7505 59.7922 56.7359 59.6576 56.7066C59.2945 56.6281 58.9636 56.4477 58.7005 56.1846L51.0464 48.5306L48.7694 50.8079L50.3511 52.3896C50.7829 52.8214 50.9865 53.4406 50.8957 54.0457C50.834 54.457 50.6458 54.8301 50.3511 55.125L49.2914 56.1846C49.0125 56.4635 48.6604 56.6483 48.2731 56.7191C48.1579 56.7399 48.0403 56.7507 47.9234 56.7507ZM34.7798 45.0365C35.2965 45.0365 35.7822 45.2378 36.1475 45.6031L46.6424 56.0979C46.9036 56.3592 47.2335 56.5323 47.5962 56.5985C47.8114 56.6379 48.0357 56.6379 48.2509 56.5985C48.6136 56.5323 48.9435 56.3592 49.2047 56.0979L50.2644 55.0383C50.5403 54.7622 50.7168 54.4126 50.7747 54.0274C50.8596 53.4604 50.6689 52.8805 50.2644 52.4759L48.5961 50.8076L51.0463 48.3572L58.787 56.0979C59.0336 56.3444 59.3434 56.5134 59.6834 56.5869C60.1165 56.6804 60.5805 56.6099 60.9637 56.3919C61.1052 56.3113 61.2351 56.2123 61.3495 56.0979L62.4089 55.0383C63.0705 54.3769 63.1229 53.333 62.5308 52.6103C62.4918 52.5631 62.4508 52.5178 62.4089 52.4759L52.3276 42.3945C51.9854 42.0522 51.5304 41.8638 51.0464 41.8638C50.5625 41.8638 50.1075 42.0522 49.7653 42.3945L44.974 47.1856L36.061 38.2726C35.7188 37.9303 35.2638 37.7419 34.7798 37.7419C34.2959 37.7419 33.841 37.9303 33.4987 38.2726L19.2954 52.4759C18.8908 52.8805 18.7 53.4606 18.7851 54.0274C18.8429 54.4128 19.0194 54.7624 19.2954 55.0383L20.3551 56.0979C20.6163 56.3592 20.9461 56.5323 21.3089 56.5985C21.5243 56.6379 21.7484 56.6379 21.9637 56.5985C22.3264 56.5323 22.6564 56.3592 22.9175 56.0979L33.4122 45.6031C33.7774 45.2378 34.2632 45.0365 34.7798 45.0365Z" fill="#00AC4E"/>
<path d="M61.1334 26.2904C60.3166 25.9694 59.4276 25.793 58.4985 25.793C54.5135 25.793 51.2715 29.035 51.2715 33.0198C51.2715 37.0048 54.5135 40.2467 58.4985 40.2467C59.4277 40.2467 60.3167 40.0703 61.1334 39.7493C62.1358 39.3554 63.0293 38.7437 63.7557 37.9729C64.9762 36.6784 65.7253 34.9351 65.7253 33.0198C65.7253 31.1047 64.9762 29.3612 63.7557 28.0667C63.0293 27.296 62.1357 26.6842 61.1334 26.2904ZM58.4981 35.0021C57.4035 35.0021 56.516 34.1145 56.516 33.0198C56.516 31.9251 57.4035 31.0377 58.4981 31.0377C59.593 31.0377 60.4805 31.9253 60.4805 33.0198C60.4807 34.1145 59.5931 35.0021 58.4981 35.0021Z" fill="#00AC4E"/>
<path d="M58.4992 40.3086C54.4804 40.3086 51.2109 37.0392 51.2109 33.0205C51.2109 29.0018 54.4804 25.7324 58.4992 25.7324C59.4151 25.7324 60.3093 25.9012 61.1565 26.2341C62.1498 26.6244 63.0643 27.2439 63.8011 28.0254C65.0819 29.3841 65.7873 31.158 65.7873 33.0205C65.7873 34.883 65.0819 36.657 63.8011 38.0156C63.0646 38.797 62.1502 39.4164 61.1565 39.807C60.3094 40.1398 59.4155 40.3086 58.4992 40.3086ZM58.4992 25.8548C54.5479 25.8548 51.3334 29.0693 51.3334 33.0205C51.3334 36.9717 54.5479 40.1862 58.4992 40.1862C59.4 40.1862 60.2789 40.0203 61.1118 39.6929C62.0886 39.309 62.9877 38.7001 63.7118 37.9316C64.9712 36.5957 65.6647 34.8517 65.6647 33.0205C65.6647 31.1893 64.9712 29.4451 63.7118 28.1094C62.9876 27.3409 62.0884 26.7319 61.1118 26.3481C60.2788 26.0209 59.4 25.8548 58.4992 25.8548ZM58.4989 35.0641C57.3721 35.0641 56.4555 34.1474 56.4555 33.0206C56.4555 31.8938 57.3721 30.9773 58.4989 30.9773C59.6258 30.9773 60.5425 31.894 60.5425 33.0206C60.5427 34.1474 59.6258 35.0641 58.4989 35.0641ZM58.4989 31.0996C57.4397 31.0996 56.578 31.9613 56.578 33.0205C56.578 34.0798 57.4397 34.9416 58.4989 34.9416C59.5582 34.9416 60.4201 34.0797 60.4201 33.0205C60.4202 31.9613 59.5584 31.0996 58.4989 31.0996Z" fill="#00AC4E"/>
</g>
<defs>
<clipPath id="clip0">
<rect width="74.2331" height="74.2331" fill="white" transform="translate(0.991211 0.0966797)"/>
</clipPath>
</defs>
</svg>
