<svg width="16" height="15" viewBox="0 0 16 15" fill="none" xmlns="http://www.w3.org/2000/svg">
<circle cx="8.0498" cy="7.60705" r="7.26818" fill="#00AC4E"/>
<path d="M8.36611 4.7627C6.62364 4.7627 5.20603 5.97138 5.20603 7.45708C5.20603 7.9765 5.37952 8.47955 5.70827 8.91444C5.64602 9.56678 5.47917 10.0511 5.2369 10.2805C5.20487 10.3108 5.19687 10.3572 5.21709 10.3956C5.23511 10.4298 5.27187 10.4508 5.31137 10.4508C5.31621 10.4508 5.32116 10.4505 5.32612 10.4498C5.36878 10.4442 6.35978 10.3089 7.07648 9.91715C7.4836 10.0727 7.91717 10.1515 8.36611 10.1515C10.1086 10.1515 11.5262 8.94278 11.5262 7.45708C11.5262 5.97138 10.1086 4.7627 8.36611 4.7627Z" fill="white"/>
</svg>
