<svg width="42" height="38" viewBox="0 0 42 38" fill="none" xmlns="http://www.w3.org/2000/svg">
<path d="M38.6281 0.854492H3.24157C1.74062 0.854492 0.519531 2.07558 0.519531 3.57653V28.0749C0.519531 29.5758 1.74062 30.7969 3.24157 30.7969H17.8725V33.4339C17.8725 33.8097 18.1772 34.1144 18.553 34.1144C18.9288 34.1144 19.2335 33.8097 19.2335 33.4339V30.967H22.6361V33.4339C22.6361 33.8097 22.9408 34.1144 23.3166 34.1144C23.6924 34.1144 23.9971 33.8097 23.9971 33.4339V30.7969H38.6281C40.129 30.7969 41.3501 29.5758 41.3501 28.0749V3.57653C41.3501 2.07567 40.129 0.854492 38.6281 0.854492ZM39.9891 28.0749C39.9891 28.8253 39.3785 29.4359 38.6281 29.4359H3.24157C2.49114 29.4359 1.88055 28.8253 1.88055 28.0749V3.57653C1.88055 2.8261 2.49114 2.21551 3.24157 2.21551H38.6281C39.3785 2.21551 39.9891 2.8261 39.9891 3.57653V28.0749ZM31.1118 37.2938C31.0003 37.652 30.6195 37.8532 30.2598 37.7414C24.5401 35.9619 17.2928 35.9735 11.6099 37.7414C11.251 37.8529 10.8696 37.6527 10.7579 37.2938C10.6462 36.9349 10.8466 36.5535 11.2055 36.4418C17.1533 34.5914 24.6829 34.581 30.6641 36.4418C31.023 36.5535 31.2234 36.9349 31.1118 37.2938ZM28.0297 13.5514C27.9099 12.4511 26.985 11.6214 25.8782 11.6214H25.0347V10.0456C25.0347 7.76609 23.1802 5.91153 20.9006 5.91153C18.6211 5.91153 16.7667 7.766 16.7667 10.0455V11.6213H15.9232C14.8164 11.6213 13.8915 12.4511 13.7717 13.5513L12.7134 23.2723C12.5741 24.5522 13.5783 25.6709 14.8649 25.6709H26.9366C28.224 25.6709 29.2273 24.5514 29.0881 23.2723L28.0297 13.5514ZM26.9366 24.3099H14.8649C14.3858 24.3099 14.0145 23.8954 14.0664 23.4197L15.1247 13.6987C15.1691 13.2903 15.5125 12.9824 15.9232 12.9824H16.7667V14.3279C16.7667 14.7037 17.0714 15.0084 17.4472 15.0084C17.823 15.0084 18.1277 14.7037 18.1277 14.3279V10.0455C18.1277 8.51635 19.3717 7.27238 20.9007 7.27238C22.4298 7.27238 23.6738 8.51635 23.6738 10.0455V11.6213H20.1402C19.7643 11.6213 19.4596 11.926 19.4596 12.3018C19.4596 12.6776 19.7643 12.9823 20.1402 12.9823H23.6738V14.3278C23.6738 14.7036 23.9785 15.0083 24.3543 15.0083C24.7301 15.0083 25.0348 14.7036 25.0348 14.3278V12.9823H25.8783C26.289 12.9823 26.6323 13.2902 26.6768 13.6986L27.7351 23.4196C27.787 23.8958 27.4151 24.3099 26.9366 24.3099Z" fill="white"/>
</svg>
