<svg width="38" height="42" viewBox="0 0 38 42" fill="none" xmlns="http://www.w3.org/2000/svg">
<path d="M37.8355 32.7507L36.6451 21.8158C36.4944 20.432 35.331 19.3884 33.939 19.3884H33.0718V17.3983C33.0718 14.7692 30.9328 12.6303 28.3038 12.6303C25.6747 12.6303 23.5357 14.7693 23.5357 17.3983V19.3884H22.6685C21.2766 19.3884 20.1132 20.4319 19.9624 21.8158L18.772 32.7507C18.5968 34.3604 19.8598 35.7672 21.4781 35.7672H35.1295C36.746 35.7673 38.011 34.3624 37.8355 32.7507ZM35.1296 34.4063H21.4782C20.6663 34.4063 20.0373 33.7039 20.1252 32.898L21.3156 21.9632C21.391 21.2713 21.9726 20.7494 22.6686 20.7494H23.5358V22.4669C23.5358 22.8427 23.8405 23.1474 24.2163 23.1474C24.5921 23.1474 24.8968 22.8427 24.8968 22.4669V17.3984C24.8968 15.5198 26.4252 13.9914 28.3039 13.9914C30.1825 13.9914 31.7109 15.5198 31.7109 17.3984V19.3884H27.4036C27.0278 19.3884 26.7231 19.6931 26.7231 20.0689C26.7231 20.4447 27.0278 20.7494 27.4036 20.7494H31.7109V22.4669C31.7109 22.8427 32.0156 23.1474 32.3914 23.1474C32.7672 23.1474 33.0719 22.8427 33.0719 22.4669V20.7494H33.9391C34.6351 20.7494 35.2168 21.2712 35.2921 21.9631L36.4825 32.8979C36.5705 33.705 35.9403 34.4063 35.1296 34.4063ZM30.6856 38.3192C30.3098 38.3192 30.0051 38.6239 30.0051 38.9997C30.0051 39.7501 29.3946 40.3607 28.6441 40.3607H2.95539C2.20497 40.3607 1.59439 39.7501 1.59439 38.9997V3.61384C1.59439 2.86342 2.20497 2.25285 2.95539 2.25285H22.0944V7.44164C22.0944 8.94256 23.3154 10.1636 24.8163 10.1636H30.6856C31.2906 10.1636 31.5943 9.42945 31.1668 9.00193C22.6477 0.48279 23.1991 0.962796 22.908 0.905039C22.814 0.88641 23.8978 0.891854 2.95539 0.891854C1.45446 0.891854 0.233398 2.11292 0.233398 3.61384V38.9997C0.233398 40.5006 1.45446 41.7217 2.95539 41.7217H28.6441C30.1451 41.7217 31.3661 40.5006 31.3661 38.9997C31.3661 38.6238 31.0614 38.3192 30.6856 38.3192ZM24.8163 8.80263C24.0659 8.80263 23.4554 8.19205 23.4554 7.44164V3.21516L29.0428 8.80263H24.8163ZM11.0461 10.9295C11.0483 9.79956 10.1346 8.88404 9.00458 8.88404H7.63116C6.50554 8.88404 5.58967 9.79981 5.58967 10.9255V12.2937C5.58967 13.4195 6.50554 14.3352 7.63116 14.3352H9.00194C10.1255 14.3352 11.0414 13.4212 11.0434 12.2977L11.0461 10.9295ZM9.68244 12.2951C9.68176 12.6696 9.37647 12.9742 9.00194 12.9742H7.63116C7.25595 12.9742 6.95067 12.669 6.95067 12.2937V10.9255C6.95067 10.5503 7.25595 10.245 7.63116 10.245H9.00458C9.38132 10.245 9.68575 10.5501 9.68507 10.9268L9.68244 12.2951ZM11.0363 21.1366C11.0363 20.0109 10.1204 19.0951 8.99479 19.0951H7.6338C6.50817 19.0951 5.59231 20.0109 5.59231 21.1366V22.4976C5.59231 23.6233 6.50817 24.5391 7.6338 24.5391H8.99479C10.1204 24.5391 11.0363 23.6233 11.0363 22.4976V21.1366ZM9.67529 22.4976C9.67529 22.8728 9.37 23.1781 8.99479 23.1781H7.6338C7.25859 23.1781 6.9533 22.8728 6.9533 22.4976V21.1366C6.9533 20.7614 7.25859 20.4561 7.6338 20.4561H8.99479C9.37 20.4561 9.67529 20.7614 9.67529 21.1366V22.4976ZM8.99479 29.3026H7.6338C6.50817 29.3026 5.59231 30.2184 5.59231 31.3441V32.7051C5.59231 33.8308 6.50817 34.7466 7.6338 34.7466H8.99479C10.1204 34.7466 11.0363 33.8308 11.0363 32.7051V31.3441C11.0363 30.2184 10.1204 29.3026 8.99479 29.3026ZM9.67529 32.7051C9.67529 33.0803 9.37 33.3856 8.99479 33.3856H7.6338C7.25859 33.3856 6.9533 33.0803 6.9533 32.7051V31.3441C6.9533 30.9689 7.25859 30.6636 7.6338 30.6636H8.99479C9.37 30.6636 9.67529 30.9689 9.67529 31.3441V32.7051ZM19.0426 12.2902H14.3642C13.9884 12.2902 13.6837 11.9855 13.6837 11.6097C13.6837 11.2339 13.9884 10.9292 14.3642 10.9292H19.0426C19.4184 10.9292 19.7231 11.2339 19.7231 11.6097C19.7231 11.9855 19.4184 12.2902 19.0426 12.2902ZM17.0862 22.4976H14.3642C13.9884 22.4976 13.6837 22.1929 13.6837 21.8171C13.6837 21.4413 13.9884 21.1366 14.3642 21.1366H17.0862C17.462 21.1366 17.7667 21.4413 17.7667 21.8171C17.7667 22.1929 17.462 22.4976 17.0862 22.4976ZM16.0654 31.3441C16.4412 31.3441 16.7459 31.6488 16.7459 32.0246C16.7459 32.4004 16.4412 32.7051 16.0654 32.7051H14.3642C13.9884 32.7051 13.6837 32.4004 13.6837 32.0246C13.6837 31.6488 13.9884 31.3441 14.3642 31.3441H16.0654Z" fill="#00AC4E"/>
</svg>
